# xmcd
# 
# Track frame offsets:
#     150
#     16759
#     34175
#     53509
#     67012
#     94582
#     107137
#     121593
#     136237
#     151151
# 
# Disc length: 2168
# 
# Revision: 0
# Processed by: cddbd v1.5.2PL0 Copyright (c) Steve Scherf et al.
# Submitted via: fre:ac v1.0.17
# 
DISCID=7108760a
DTITLE=Barry BigB Brenner - Blues, Rags and Stomps
DYEAR=2006
DGENRE=Blues
TTITLE0=Hollywood and Vine
TTITLE1=Longest road I know
TTITLE2=Take that train and ride
TTITLE3=Cakewalk parade
TTITLE4=Billy the gambler
TTITLE5=Slip in slide
TTITLE6=Walk my blues away
TTITLE7=Avocado dog bite
TTITLE8=Cannonball blues
TTITLE9=Trippin' along
EXTD=
EXTT0=
EXTT1=
EXTT2=
EXTT3=
EXTT4=
EXTT5=
EXTT6=
EXTT7=
EXTT8=
EXTT9=
PLAYORDER=
